<mxfile host="embed.diagrams.net" modified="2020-09-01T16:47:37.650Z" agent="5.0 (Macintosh; Intel Mac OS X 10_15_6) AppleWebKit/537.36 (KHTML, like Gecko) Code/1.48.2 Chrome/78.0.3904.130 Electron/7.3.2 Safari/537.36" etag="CbOntGTzzzR9sFj-UwVa" version="13.6.6">
    <diagram id="6hGFLwfOUW9BJ-s0fimq" name="system">
        <mxGraphModel dx="1288" dy="2355" grid="1" gridSize="10" guides="1" tooltips="1" connect="1" arrows="1" fold="1" page="1" pageScale="1" pageWidth="827" pageHeight="1169" math="0" shadow="0">
            <root>
                <mxCell id="0"/>
                <mxCell id="1" parent="0"/>
                <mxCell id="43" value="" style="rounded=0;whiteSpace=wrap;html=1;strokeWidth=1;fillColor=#ffffff;" parent="1" vertex="1">
                    <mxGeometry x="-87.5" y="-270" width="1667.5" height="1300" as="geometry"/>
                </mxCell>
                <mxCell id="33" value="VPC" style="outlineConnect=0;gradientColor=none;html=1;whiteSpace=wrap;fontSize=12;fontStyle=0;shape=mxgraph.aws4.group;grIcon=mxgraph.aws4.group_vpc;strokeColor=#B6BABF;fillColor=#ffffff;verticalAlign=top;align=left;spacingLeft=30;fontColor=#B6BABF;dashed=0;" parent="1" vertex="1">
                    <mxGeometry x="50" y="-60" width="1030" height="820" as="geometry"/>
                </mxCell>
                <mxCell id="73" value="Availability zone(1a)" style="outlineConnect=0;gradientColor=none;html=1;whiteSpace=wrap;fontSize=12;fontStyle=0;shape=mxgraph.aws4.group;grIcon=mxgraph.aws4.group_availability_zone;strokeColor=#545B64;fillColor=none;verticalAlign=top;align=left;spacingLeft=30;fontColor=#545B64;dashed=1;" parent="1" vertex="1">
                    <mxGeometry x="90" y="140" width="460" height="580" as="geometry"/>
                </mxCell>
                <mxCell id="31" value="Private subnet" style="points=[[0,0],[0.25,0],[0.5,0],[0.75,0],[1,0],[1,0.25],[1,0.5],[1,0.75],[1,1],[0.75,1],[0.5,1],[0.25,1],[0,1],[0,0.75],[0,0.5],[0,0.25]];outlineConnect=0;gradientColor=none;html=1;whiteSpace=wrap;fontSize=12;fontStyle=0;shape=mxgraph.aws4.group;grIcon=mxgraph.aws4.group_security_group;grStroke=0;strokeColor=#147EBA;fillColor=#E6F2F8;verticalAlign=top;align=left;spacingLeft=30;fontColor=#147EBA;dashed=0;" parent="1" vertex="1">
                    <mxGeometry x="130" y="440" width="240" height="250" as="geometry"/>
                </mxCell>
                <mxCell id="44" value="Client" style="outlineConnect=0;fontColor=#232F3E;gradientColor=none;strokeColor=#232F3E;fillColor=#ffffff;dashed=0;verticalLabelPosition=bottom;verticalAlign=top;align=center;html=1;fontSize=12;fontStyle=0;aspect=fixed;shape=mxgraph.aws4.resourceIcon;resIcon=mxgraph.aws4.client;" parent="1" vertex="1">
                    <mxGeometry x="535" y="-200" width="70" height="70" as="geometry"/>
                </mxCell>
                <mxCell id="32" value="Public subnet" style="points=[[0,0],[0.25,0],[0.5,0],[0.75,0],[1,0],[1,0.25],[1,0.5],[1,0.75],[1,1],[0.75,1],[0.5,1],[0.25,1],[0,1],[0,0.75],[0,0.5],[0,0.25]];outlineConnect=0;gradientColor=none;html=1;whiteSpace=wrap;fontSize=12;fontStyle=0;shape=mxgraph.aws4.group;grIcon=mxgraph.aws4.group_security_group;grStroke=0;strokeColor=#248814;fillColor=#E9F3E6;verticalAlign=top;align=left;spacingLeft=30;fontColor=#248814;dashed=0;" parent="1" vertex="1">
                    <mxGeometry x="130" y="170" width="400" height="250" as="geometry"/>
                </mxCell>
                <mxCell id="49" value="Internet" style="outlineConnect=0;fontColor=#232F3E;gradientColor=none;strokeColor=#232F3E;fillColor=#ffffff;dashed=0;verticalLabelPosition=bottom;verticalAlign=top;align=center;html=1;fontSize=12;fontStyle=0;aspect=fixed;shape=mxgraph.aws4.resourceIcon;resIcon=mxgraph.aws4.internet_alt1;" parent="1" vertex="1">
                    <mxGeometry x="385" y="-220" width="90" height="90" as="geometry"/>
                </mxCell>
                <mxCell id="57" value="" style="endArrow=classic;startArrow=classic;html=1;strokeColor=#000000;strokeWidth=1;" parent="1" source="36" target="49" edge="1">
                    <mxGeometry width="50" height="50" relative="1" as="geometry">
                        <mxPoint x="380" y="80" as="sourcePoint"/>
                        <mxPoint x="355" y="-60" as="targetPoint"/>
                    </mxGeometry>
                </mxCell>
                <mxCell id="60" value="EC2(nginx,php-fpm)&lt;br&gt;WEBサーバー" style="outlineConnect=0;fontColor=#232F3E;gradientColor=none;strokeColor=#ffffff;fillColor=#232F3E;dashed=0;verticalLabelPosition=middle;verticalAlign=bottom;align=center;html=1;whiteSpace=wrap;fontSize=10;fontStyle=1;spacing=3;shape=mxgraph.aws4.productIcon;prIcon=mxgraph.aws4.ec2;" parent="1" vertex="1">
                    <mxGeometry x="190" y="492.5" width="110" height="145" as="geometry"/>
                </mxCell>
                <mxCell id="34" value="NAT gateway" style="outlineConnect=0;fontColor=#232F3E;gradientColor=none;strokeColor=#232F3E;fillColor=#ffffff;dashed=0;verticalLabelPosition=bottom;verticalAlign=top;align=center;html=1;fontSize=12;fontStyle=0;aspect=fixed;shape=mxgraph.aws4.resourceIcon;resIcon=mxgraph.aws4.nat_gateway;" parent="1" vertex="1">
                    <mxGeometry x="220" y="310" width="60" height="60" as="geometry"/>
                </mxCell>
                <mxCell id="64" value="" style="endArrow=classic;html=1;strokeColor=#000000;strokeWidth=1;exitX=0.5;exitY=0;exitDx=0;exitDy=0;startArrow=oval;startFill=1;" parent="1" source="31" target="34" edge="1">
                    <mxGeometry width="50" height="50" relative="1" as="geometry">
                        <mxPoint x="520" y="430" as="sourcePoint"/>
                        <mxPoint x="520" y="-60" as="targetPoint"/>
                    </mxGeometry>
                </mxCell>
                <mxCell id="36" value="Internet&#10;gateway" style="outlineConnect=0;fontColor=#232F3E;gradientColor=none;strokeColor=#232F3E;fillColor=#ffffff;dashed=0;verticalLabelPosition=bottom;verticalAlign=top;align=center;html=1;fontSize=12;fontStyle=0;aspect=fixed;shape=mxgraph.aws4.resourceIcon;resIcon=mxgraph.aws4.internet_gateway;" parent="1" vertex="1">
                    <mxGeometry x="400" y="40" width="60" height="60" as="geometry"/>
                </mxCell>
                <mxCell id="66" value="" style="endArrow=classic;startArrow=classic;html=1;strokeColor=#000000;strokeWidth=1;exitX=0.75;exitY=0;exitDx=0;exitDy=0;" parent="1" source="32" target="36" edge="1">
                    <mxGeometry width="50" height="50" relative="1" as="geometry">
                        <mxPoint x="342" y="170" as="sourcePoint"/>
                        <mxPoint x="355" y="-50" as="targetPoint"/>
                    </mxGeometry>
                </mxCell>
                <mxCell id="67" value="Amazon Route 53" style="outlineConnect=0;fontColor=#232F3E;gradientColor=none;strokeColor=#ffffff;fillColor=#232F3E;dashed=0;verticalLabelPosition=middle;verticalAlign=bottom;align=center;html=1;whiteSpace=wrap;fontSize=10;fontStyle=1;spacing=3;shape=mxgraph.aws4.productIcon;prIcon=mxgraph.aws4.route_53;" parent="1" vertex="1">
                    <mxGeometry x="530" y="-30" width="80" height="110" as="geometry"/>
                </mxCell>
                <mxCell id="69" value="" style="endArrow=classic;html=1;strokeColor=#000000;strokeWidth=1;startArrow=classic;startFill=1;" parent="1" source="44" target="67" edge="1">
                    <mxGeometry width="50" height="50" relative="1" as="geometry">
                        <mxPoint x="240" y="-80" as="sourcePoint"/>
                        <mxPoint x="240" y="235" as="targetPoint"/>
                    </mxGeometry>
                </mxCell>
                <mxCell id="74" value="Private subnet" style="points=[[0,0],[0.25,0],[0.5,0],[0.75,0],[1,0],[1,0.25],[1,0.5],[1,0.75],[1,1],[0.75,1],[0.5,1],[0.25,1],[0,1],[0,0.75],[0,0.5],[0,0.25]];outlineConnect=0;gradientColor=none;html=1;whiteSpace=wrap;fontSize=12;fontStyle=0;shape=mxgraph.aws4.group;grIcon=mxgraph.aws4.group_security_group;grStroke=0;strokeColor=#147EBA;fillColor=#E6F2F8;verticalAlign=top;align=left;spacingLeft=30;fontColor=#147EBA;dashed=0;" parent="1" vertex="1">
                    <mxGeometry x="380" y="440" width="150" height="250" as="geometry"/>
                </mxCell>
                <mxCell id="75" value="Amazon&lt;br&gt;Aurora(MySQL)" style="outlineConnect=0;fontColor=#232F3E;gradientColor=none;strokeColor=#ffffff;fillColor=#232F3E;dashed=0;verticalLabelPosition=middle;verticalAlign=bottom;align=center;html=1;whiteSpace=wrap;fontSize=10;fontStyle=1;spacing=3;shape=mxgraph.aws4.productIcon;prIcon=mxgraph.aws4.aurora;" parent="1" vertex="1">
                    <mxGeometry x="415" y="485" width="80" height="110" as="geometry"/>
                </mxCell>
                <mxCell id="85" value="" style="endArrow=classic;html=1;strokeColor=#000000;edgeStyle=orthogonalEdgeStyle;startArrow=oval;startFill=1;" parent="1" source="60" target="75" edge="1">
                    <mxGeometry width="50" height="50" relative="1" as="geometry">
                        <mxPoint x="290" y="552.4285714285716" as="sourcePoint"/>
                        <mxPoint x="740" y="605" as="targetPoint"/>
                        <Array as="points">
                            <mxPoint x="370" y="560"/>
                            <mxPoint x="370" y="560"/>
                        </Array>
                    </mxGeometry>
                </mxCell>
                <mxCell id="91" value="Availability zone(1c)" style="outlineConnect=0;gradientColor=none;html=1;whiteSpace=wrap;fontSize=12;fontStyle=0;shape=mxgraph.aws4.group;grIcon=mxgraph.aws4.group_availability_zone;strokeColor=#545B64;fillColor=none;verticalAlign=top;align=left;spacingLeft=30;fontColor=#545B64;dashed=1;" parent="1" vertex="1">
                    <mxGeometry x="590" y="140" width="450" height="580" as="geometry"/>
                </mxCell>
                <mxCell id="87" value="Public subnet" style="points=[[0,0],[0.25,0],[0.5,0],[0.75,0],[1,0],[1,0.25],[1,0.5],[1,0.75],[1,1],[0.75,1],[0.5,1],[0.25,1],[0,1],[0,0.75],[0,0.5],[0,0.25]];outlineConnect=0;gradientColor=none;html=1;whiteSpace=wrap;fontSize=12;fontStyle=0;shape=mxgraph.aws4.group;grIcon=mxgraph.aws4.group_security_group;grStroke=0;strokeColor=#248814;fillColor=#E9F3E6;verticalAlign=top;align=left;spacingLeft=30;fontColor=#248814;dashed=0;" parent="1" vertex="1">
                    <mxGeometry x="615" y="170" width="400" height="250" as="geometry"/>
                </mxCell>
                <mxCell id="92" value="ALB" style="outlineConnect=0;fontColor=#232F3E;gradientColor=none;strokeColor=#ffffff;fillColor=#232F3E;dashed=0;verticalLabelPosition=middle;verticalAlign=bottom;align=center;html=1;whiteSpace=wrap;fontSize=16;fontStyle=1;spacing=3;shape=mxgraph.aws4.productIcon;prIcon=mxgraph.aws4.application_load_balancer;" parent="1" vertex="1">
                    <mxGeometry x="510" y="210" width="120" height="140" as="geometry"/>
                </mxCell>
                <mxCell id="93" value="" style="endArrow=classic;html=1;strokeColor=#000000;strokeWidth=1;startArrow=classic;startFill=1;" parent="1" source="67" target="92" edge="1">
                    <mxGeometry width="50" height="50" relative="1" as="geometry">
                        <mxPoint x="570" y="-15" as="sourcePoint"/>
                        <mxPoint x="570" y="125" as="targetPoint"/>
                    </mxGeometry>
                </mxCell>
                <mxCell id="88" value="Private subnet" style="points=[[0,0],[0.25,0],[0.5,0],[0.75,0],[1,0],[1,0.25],[1,0.5],[1,0.75],[1,1],[0.75,1],[0.5,1],[0.25,1],[0,1],[0,0.75],[0,0.5],[0,0.25]];outlineConnect=0;gradientColor=none;html=1;whiteSpace=wrap;fontSize=12;fontStyle=0;shape=mxgraph.aws4.group;grIcon=mxgraph.aws4.group_security_group;grStroke=0;strokeColor=#147EBA;fillColor=#E6F2F8;verticalAlign=top;align=left;spacingLeft=30;fontColor=#147EBA;dashed=0;" parent="1" vertex="1">
                    <mxGeometry x="775" y="440" width="240" height="250" as="geometry"/>
                </mxCell>
                <mxCell id="89" value="EC2(nginx,php-fpm)&lt;br&gt;WEBサーバー" style="outlineConnect=0;fontColor=#232F3E;gradientColor=none;strokeColor=#ffffff;fillColor=#232F3E;dashed=0;verticalLabelPosition=middle;verticalAlign=bottom;align=center;html=1;whiteSpace=wrap;fontSize=10;fontStyle=1;spacing=3;shape=mxgraph.aws4.productIcon;prIcon=mxgraph.aws4.ec2;" parent="1" vertex="1">
                    <mxGeometry x="840" y="492.5" width="110" height="145" as="geometry"/>
                </mxCell>
                <mxCell id="96" value="" style="endArrow=classic;startArrow=classic;html=1;strokeColor=#000000;strokeWidth=1;exitX=0.25;exitY=0;exitDx=0;exitDy=0;" parent="1" source="87" target="36" edge="1">
                    <mxGeometry width="50" height="50" relative="1" as="geometry">
                        <mxPoint x="375" y="180" as="sourcePoint"/>
                        <mxPoint x="455" y="100" as="targetPoint"/>
                    </mxGeometry>
                </mxCell>
                <mxCell id="97" value="NAT gateway" style="outlineConnect=0;fontColor=#232F3E;gradientColor=none;strokeColor=#232F3E;fillColor=#ffffff;dashed=0;verticalLabelPosition=bottom;verticalAlign=top;align=center;html=1;fontSize=12;fontStyle=0;aspect=fixed;shape=mxgraph.aws4.resourceIcon;resIcon=mxgraph.aws4.nat_gateway;" parent="1" vertex="1">
                    <mxGeometry x="866.25" y="310" width="60" height="60" as="geometry"/>
                </mxCell>
                <mxCell id="98" value="" style="endArrow=classic;html=1;strokeColor=#000000;strokeWidth=1;startArrow=oval;startFill=1;exitX=0.5;exitY=0;exitDx=0;exitDy=0;" parent="1" source="88" target="97" edge="1">
                    <mxGeometry width="50" height="50" relative="1" as="geometry">
                        <mxPoint x="952" y="440" as="sourcePoint"/>
                        <mxPoint x="827" y="370" as="targetPoint"/>
                    </mxGeometry>
                </mxCell>
                <mxCell id="99" value="" style="endArrow=classic;html=1;strokeColor=#000000;edgeStyle=orthogonalEdgeStyle;startArrow=classic;startFill=1;" parent="1" source="60" target="92" edge="1">
                    <mxGeometry width="50" height="50" relative="1" as="geometry">
                        <mxPoint x="270" y="335" as="sourcePoint"/>
                        <mxPoint x="455" y="285" as="targetPoint"/>
                        <Array as="points">
                            <mxPoint x="360" y="520"/>
                            <mxPoint x="360" y="390"/>
                            <mxPoint x="570" y="390"/>
                        </Array>
                    </mxGeometry>
                </mxCell>
                <mxCell id="100" value="" style="endArrow=classic;html=1;strokeColor=#000000;edgeStyle=orthogonalEdgeStyle;startArrow=classic;startFill=1;" parent="1" source="89" target="92" edge="1">
                    <mxGeometry width="50" height="50" relative="1" as="geometry">
                        <mxPoint x="350" y="582.5714285714289" as="sourcePoint"/>
                        <mxPoint x="520" y="290" as="targetPoint"/>
                        <Array as="points">
                            <mxPoint x="800" y="520"/>
                            <mxPoint x="800" y="390"/>
                            <mxPoint x="570" y="390"/>
                        </Array>
                    </mxGeometry>
                </mxCell>
                <mxCell id="90" value="Private subnet" style="points=[[0,0],[0.25,0],[0.5,0],[0.75,0],[1,0],[1,0.25],[1,0.5],[1,0.75],[1,1],[0.75,1],[0.5,1],[0.25,1],[0,1],[0,0.75],[0,0.5],[0,0.25]];outlineConnect=0;gradientColor=none;html=1;whiteSpace=wrap;fontSize=12;fontStyle=0;shape=mxgraph.aws4.group;grIcon=mxgraph.aws4.group_security_group;grStroke=0;strokeColor=#147EBA;fillColor=#E6F2F8;verticalAlign=top;align=left;spacingLeft=30;fontColor=#147EBA;dashed=0;" parent="1" vertex="1">
                    <mxGeometry x="615" y="440" width="150" height="250" as="geometry"/>
                </mxCell>
                <mxCell id="101" value="Amazon&lt;br&gt;Aurora(MySQL)" style="outlineConnect=0;fontColor=#232F3E;gradientColor=none;strokeColor=#ffffff;fillColor=#232F3E;dashed=0;verticalLabelPosition=middle;verticalAlign=bottom;align=center;html=1;whiteSpace=wrap;fontSize=10;fontStyle=1;spacing=3;shape=mxgraph.aws4.productIcon;prIcon=mxgraph.aws4.aurora;" parent="1" vertex="1">
                    <mxGeometry x="650" y="485" width="80" height="110" as="geometry"/>
                </mxCell>
                <mxCell id="103" value="" style="endArrow=classic;html=1;strokeColor=#000000;edgeStyle=orthogonalEdgeStyle;startArrow=oval;startFill=1;" parent="1" source="60" target="101" edge="1">
                    <mxGeometry width="50" height="50" relative="1" as="geometry">
                        <mxPoint x="295" y="630" as="sourcePoint"/>
                        <mxPoint x="460" y="605" as="targetPoint"/>
                        <Array as="points">
                            <mxPoint x="350" y="560"/>
                            <mxPoint x="350" y="630"/>
                            <mxPoint x="690" y="630"/>
                        </Array>
                    </mxGeometry>
                </mxCell>
                <mxCell id="104" value="" style="endArrow=classic;html=1;strokeColor=#000000;edgeStyle=orthogonalEdgeStyle;startArrow=oval;startFill=1;" parent="1" source="89" target="101" edge="1">
                    <mxGeometry width="50" height="50" relative="1" as="geometry">
                        <mxPoint x="295" y="630" as="sourcePoint"/>
                        <mxPoint x="700" y="605" as="targetPoint"/>
                        <Array as="points">
                            <mxPoint x="810" y="560"/>
                            <mxPoint x="810" y="560"/>
                        </Array>
                    </mxGeometry>
                </mxCell>
                <mxCell id="105" value="" style="endArrow=classic;html=1;strokeColor=#000000;edgeStyle=orthogonalEdgeStyle;startArrow=oval;startFill=1;" parent="1" source="89" target="75" edge="1">
                    <mxGeometry width="50" height="50" relative="1" as="geometry">
                        <mxPoint x="905" y="630" as="sourcePoint"/>
                        <mxPoint x="700" y="605" as="targetPoint"/>
                        <Array as="points">
                            <mxPoint x="800" y="560"/>
                            <mxPoint x="800" y="660"/>
                            <mxPoint x="455" y="660"/>
                        </Array>
                    </mxGeometry>
                </mxCell>
                <mxCell id="110" value="AWS Systems Manager" style="outlineConnect=0;fontColor=#232F3E;gradientColor=none;strokeColor=#ffffff;fillColor=#232F3E;dashed=0;verticalLabelPosition=middle;verticalAlign=bottom;align=center;html=1;whiteSpace=wrap;fontSize=10;fontStyle=1;spacing=3;shape=mxgraph.aws4.productIcon;prIcon=mxgraph.aws4.systems_manager;" parent="1" vertex="1">
                    <mxGeometry x="530" y="810" width="80" height="110" as="geometry"/>
                </mxCell>
                <mxCell id="112" value="&lt;font color=&quot;#000000&quot;&gt;developer&lt;/font&gt;" style="pointerEvents=1;shadow=0;dashed=0;html=1;strokeColor=none;fillColor=#505050;labelPosition=center;verticalLabelPosition=bottom;verticalAlign=top;outlineConnect=0;align=center;shape=mxgraph.office.services.user_services;fontSize=16;" parent="1" vertex="1">
                    <mxGeometry x="215.5" y="835.5" width="59" height="59" as="geometry"/>
                </mxCell>
                <mxCell id="113" value="" style="endArrow=classic;html=1;strokeColor=#000000;strokeWidth=1;startArrow=oval;startFill=1;" parent="1" source="112" target="110" edge="1">
                    <mxGeometry width="50" height="50" relative="1" as="geometry">
                        <mxPoint x="340.0000000000002" y="944.5" as="sourcePoint"/>
                        <mxPoint x="340.0000000000002" y="874.5" as="targetPoint"/>
                    </mxGeometry>
                </mxCell>
                <mxCell id="114" value="" style="endArrow=classic;html=1;strokeColor=#000000;edgeStyle=orthogonalEdgeStyle;startArrow=oval;startFill=1;" parent="1" source="110" target="60" edge="1">
                    <mxGeometry width="50" height="50" relative="1" as="geometry">
                        <mxPoint x="260.0000000000002" y="647.5" as="sourcePoint"/>
                        <mxPoint x="425" y="550" as="targetPoint"/>
                        <Array as="points">
                            <mxPoint x="570" y="740"/>
                            <mxPoint x="250" y="740"/>
                        </Array>
                    </mxGeometry>
                </mxCell>
                <mxCell id="115" value="" style="endArrow=classic;html=1;strokeColor=#000000;edgeStyle=orthogonalEdgeStyle;startArrow=oval;startFill=1;" parent="1" source="110" target="89" edge="1">
                    <mxGeometry width="50" height="50" relative="1" as="geometry">
                        <mxPoint x="575" y="870" as="sourcePoint"/>
                        <mxPoint x="260.0000000000002" y="647.5" as="targetPoint"/>
                        <Array as="points">
                            <mxPoint x="570" y="740"/>
                            <mxPoint x="895" y="740"/>
                        </Array>
                    </mxGeometry>
                </mxCell>
                <mxCell id="116" value="Amazon S3&lt;br&gt;(ALB用バケット)" style="outlineConnect=0;fontColor=#232F3E;gradientColor=none;strokeColor=#ffffff;fillColor=#232F3E;dashed=0;verticalLabelPosition=middle;verticalAlign=bottom;align=center;html=1;whiteSpace=wrap;fontSize=10;fontStyle=1;spacing=3;shape=mxgraph.aws4.productIcon;prIcon=mxgraph.aws4.s3;" parent="1" vertex="1">
                    <mxGeometry x="1120" y="220" width="90" height="120" as="geometry"/>
                </mxCell>
                <mxCell id="118" value="Amazon S3&lt;br&gt;(WEB用バケット)" style="outlineConnect=0;fontColor=#232F3E;gradientColor=none;strokeColor=#ffffff;fillColor=#232F3E;dashed=0;verticalLabelPosition=middle;verticalAlign=bottom;align=center;html=1;whiteSpace=wrap;fontSize=10;fontStyle=1;spacing=3;shape=mxgraph.aws4.productIcon;prIcon=mxgraph.aws4.s3;" parent="1" vertex="1">
                    <mxGeometry x="1120" y="503.75" width="90" height="122.5" as="geometry"/>
                </mxCell>
                <mxCell id="119" value="" style="endArrow=classic;html=1;strokeColor=#000000;strokeWidth=1;startArrow=oval;startFill=1;" parent="1" source="92" target="116" edge="1">
                    <mxGeometry width="50" height="50" relative="1" as="geometry">
                        <mxPoint x="905" y="450" as="sourcePoint"/>
                        <mxPoint x="905.8750000000005" y="380" as="targetPoint"/>
                    </mxGeometry>
                </mxCell>
                <mxCell id="120" value="" style="endArrow=classic;html=1;strokeColor=#000000;strokeWidth=1;startArrow=oval;startFill=1;" parent="1" source="89" target="118" edge="1">
                    <mxGeometry width="50" height="50" relative="1" as="geometry">
                        <mxPoint x="640" y="290" as="sourcePoint"/>
                        <mxPoint x="1130" y="290" as="targetPoint"/>
                    </mxGeometry>
                </mxCell>
                <mxCell id="121" value="" style="endArrow=classic;html=1;strokeColor=#000000;edgeStyle=orthogonalEdgeStyle;startArrow=oval;startFill=1;" parent="1" source="60" target="118" edge="1">
                    <mxGeometry width="50" height="50" relative="1" as="geometry">
                        <mxPoint x="580" y="820" as="sourcePoint"/>
                        <mxPoint x="905" y="647.5" as="targetPoint"/>
                        <Array as="points">
                            <mxPoint x="160" y="565"/>
                            <mxPoint x="160" y="790"/>
                            <mxPoint x="990" y="790"/>
                            <mxPoint x="990" y="565"/>
                        </Array>
                    </mxGeometry>
                </mxCell>
            </root>
        </mxGraphModel>
    </diagram>
</mxfile>